<svg width="349" height="363" viewBox="0 0 349 363" fill="none" xmlns="http://www.w3.org/2000/svg">
<path d="M7.39197 359.347H341.608C345.674 359.347 349 355.304 349 350.362V8.11726C337.752 2.98119 325.937 -0.238198 313.1 0.0313335C273.959 0.80998 240.535 33.7677 213.616 68.2977C186.697 102.843 161.465 141.865 125.836 161.555C104.732 173.22 81.2748 177.233 58.1133 178.027C38.8326 178.686 18.3075 177.667 0 183.432V350.347C0 355.304 3.32639 359.347 7.39197 359.347Z" fill="#D4E0EF"/>
<path d="M7.41599 359.345H341.609C345.674 359.345 349 356.262 349 352.493V165.798C338.307 161.139 326.813 158.01 317.081 156.64C292.887 153.225 266.548 159.472 249.449 175.687C240.851 183.841 234.913 194.004 228.1 203.505C200.124 242.513 155.602 271.016 106.351 281.476C84.1394 286.193 61.1766 287.357 38.9529 292.005C25.3896 294.837 11.8016 299.211 0.0245361 305.937V352.505C0.0245361 356.262 3.35068 359.345 7.41599 359.345Z" fill="#D4E0EF"/>
<path d="M7.41605 362.653H341.609C345.674 362.653 349 358.609 349 353.667V219.578C349 216.433 348.05 213.336 346.059 210.902C345.229 209.886 344.375 208.899 343.493 207.941C326.062 189.071 301.522 184.458 279.804 174.064C264.208 166.59 249.671 155.837 237.044 142.418C214.5 118.44 197.672 85.8051 171.235 68.6865C149.332 54.5034 122.403 52.9159 99.0948 63.2948C75.7994 73.6738 56.3229 95.585 45.0386 122.453C23.0737 174.798 31.8326 241.205 6.60303 291.318C5.22815 294.049 3.75626 296.718 2.21457 299.339C0.796661 301.75 3.05176e-05 304.482 3.05176e-05 307.278V353.652C0.0246582 358.609 3.35077 362.653 7.41605 362.653Z" fill="#DDE4EE"/>
<path d="M73.775 267.438C73.775 313.529 117.48 350.893 171.392 350.893C225.305 350.893 269.009 313.529 269.009 267.438C269.009 221.347 225.305 183.982 171.392 183.982C117.48 183.982 73.775 221.347 73.775 267.438Z" stroke="white" stroke-width="0.2835" stroke-miterlimit="10"/>
<path d="M37.168 250.383C37.168 309.258 92.7094 356.986 161.223 356.986C229.737 356.986 285.278 309.258 285.278 250.383C285.278 191.507 229.737 143.779 161.223 143.779C92.7094 143.779 37.168 191.507 37.168 250.383Z" stroke="white" stroke-width="0.2835" stroke-miterlimit="10"/>
</svg>
