<svg width="30" height="30" viewBox="0 0 30 30" fill="none" xmlns="http://www.w3.org/2000/svg">
<path d="M15 0C23.2941 0 30 6.70588 30 15C30 23.2941 23.2941 30 15 30C6.70588 30 0 23.2941 0 15C0 6.70588 6.70588 0 15 0ZM15 28.2353C22.3235 28.2353 28.2353 22.3235 28.2353 15C28.2353 7.67647 22.3235 1.76471 15 1.76471C7.67647 1.76471 1.76471 7.67647 1.76471 15C1.76471 22.3235 7.67647 28.2353 15 28.2353Z" fill="#06406E"/>
<path d="M14.7351 6.44094L23.2939 14.9998L14.7351 23.5586L13.4998 22.3233L20.8234 14.9998L13.4998 7.67624L14.7351 6.44094Z" fill="#06406E"/>
<path d="M22.0586 15.8828L7.05859 15.8828V14.1181L22.0586 14.1181V15.8828Z" fill="#06406E"/>
</svg>
