<svg width="24" height="24" viewBox="0 0 24 24" fill="none" xmlns="http://www.w3.org/2000/svg">
<path d="M14.943 14.5101C15.037 14.5101 15.243 14.6051 15.519 14.9721C16.2767 16.0242 16.9988 17.1014 17.684 18.2021C16.057 18.8481 14.089 19.2121 12 19.2121C11.012 19.2121 10.052 19.1151 9.144 18.9521C10.561 17.4451 12.062 16.0961 13.847 14.9721C14.402 14.6941 14.666 14.5101 14.943 14.5101ZM17.367 8.30812C20.225 9.36312 22.155 11.2141 22.155 13.3061C22.155 14.7211 21.274 16.0361 19.817 17.0611C19.432 14.8011 18.919 12.5841 18.173 10.4451C17.9247 9.72532 17.6553 9.01301 17.365 8.30912L17.367 8.30812ZM7.73 7.99112C7.31608 9.07032 6.95038 10.1674 6.634 11.2791C6.06808 13.3863 5.625 15.5246 5.307 17.6831C3.197 16.5831 1.845 14.9931 1.845 13.2981C1.846 11.0241 4.285 8.96112 7.73 7.99112ZM12.463 0.000119836C12.368 0.000119836 12.383 -0.00688016 12.289 0.0861198C10.8183 1.83906 9.58655 3.77931 8.626 5.85612C3.631 6.80412 0 9.80112 0 13.2991C0 15.8871 1.991 18.2021 5.048 19.6161C4.89087 20.9489 4.77515 22.2862 4.701 23.6261C4.701 23.7201 4.809 23.8281 4.904 23.8281H4.99C5.084 23.8281 5.07 23.8351 5.163 23.7421C5.9815 22.653 6.82778 21.5849 7.701 20.5391C9.039 20.8751 10.481 21.0591 12 21.0591C14.455 21.0591 16.738 20.5791 18.635 19.7611C19.095 20.5331 19.543 21.3161 20.02 22.1561C20.02 22.2501 20.214 22.2421 20.308 22.2421C20.3537 22.2416 20.3974 22.2232 20.4298 22.1909C20.4621 22.1585 20.4805 22.1148 20.481 22.0691C20.3887 21.0373 20.2733 20.0077 20.135 18.9811C22.504 17.5611 24 15.5311 24 13.2991C24 10.0471 20.844 7.22712 16.385 6.08712C15.3501 3.96045 14.0931 1.94925 12.635 0.0871198C12.635 -0.00688017 12.557 0.000119836 12.463 0.000119836Z" fill="#E8EDFC"/>
</svg>
