<svg width="25" height="25" viewBox="0 0 25 25" fill="none" xmlns="http://www.w3.org/2000/svg">
<path d="M6.25 0V9.375H8.90625L9.21875 10.4688L9.53125 11.4062H9.6875L11.5625 10.4688L14.375 13.2812L13.4375 15.1562V15.3125L14.375 15.625L15.4687 15.9375V16.25L25 10.9375L6.25 0ZM7.03125 16.4062C6.71875 16.4062 6.40625 16.5625 6.25 16.7188C5.78125 17.0312 5.46875 17.5 5.46875 17.9688C5.46875 18.4375 5.78125 19.0625 6.25 19.2188C6.40625 19.375 6.71875 19.5312 7.03125 19.5312C7.96875 19.5312 8.59375 18.9062 8.59375 17.9688C8.59375 17.0312 7.96875 16.4062 7.03125 16.4062Z" fill="#E8EDFC"/>
<path d="M14.0625 18.75V17.1875L12.3438 16.5625C12.1875 16.0938 12.0312 15.625 11.7188 15.1562L12.5 13.5937L11.4062 12.5L9.84375 13.2812C9.375 12.9688 8.90625 12.8125 8.4375 12.6563L7.8125 10.9375H6.25L5.625 12.6563C5.15625 12.8125 4.6875 12.9688 4.21875 13.2812L2.65625 12.5L1.5625 13.5937L2.34375 15.3125C2.03125 15.7813 1.875 16.25 1.71875 16.7187L0 17.1875V18.75L1.71875 19.375C1.875 19.8437 2.03125 20.3125 2.34375 20.7812L1.5625 22.3438L2.65625 23.4375L4.375 22.6562C4.84375 22.9688 5.3125 23.125 5.78125 23.2812L6.25 25H7.8125L8.4375 23.2812C8.90625 23.125 9.375 22.9688 9.84375 22.6562L11.4062 23.4375L12.5 22.3438L11.7188 20.625C12.0312 20.1562 12.1875 19.6875 12.3438 19.2188L14.0625 18.75ZM7.03125 21.0938C5.3125 21.0938 3.90625 19.6875 3.90625 17.9688C3.90625 16.25 5.3125 14.8438 7.03125 14.8438C8.75 14.8438 10.1562 16.25 10.1562 17.9688C10.1562 19.6875 8.75 21.0938 7.03125 21.0938Z" fill="#E8EDFC"/>
</svg>
