<svg width="27" height="26" viewBox="0 0 27 26" fill="none" xmlns="http://www.w3.org/2000/svg">
<path d="M25.5098 0H1.49025C1.09501 0 0.71596 0.151193 0.436484 0.420318C0.157008 0.689443 0 1.05446 0 1.43506V24.5653C9.94398e-05 24.9458 0.157151 25.3108 0.436617 25.5798C0.716082 25.8489 1.09508 26 1.49025 26H14.4214V15.9315H10.9028V12.0077H14.4214V9.11372C14.4214 5.75539 16.5514 3.92708 19.6624 3.92708C21.1526 3.92708 22.4333 4.03361 22.8068 4.08164V7.59128L20.649 7.59236C18.957 7.59236 18.6296 8.36658 18.6296 9.50264V12.008H22.6646L22.1393 15.9319H18.6296V26H25.5101C25.9053 25.9999 26.2843 25.8487 26.5636 25.5796C26.843 25.3104 27 24.9455 27 24.5649V1.43506C27 1.05446 26.843 0.689443 26.5635 0.420318C26.284 0.151193 25.905 0 25.5098 0Z" fill="#ACACAC"/>
</svg>
