<svg width="33" height="33" viewBox="0 0 33 33" fill="none" xmlns="http://www.w3.org/2000/svg">
<rect width="32.82" height="33" rx="5" fill="#DDE4EE"/>
<path d="M14.4511 22.5317V20.4295C14.4511 19.8929 14.8869 19.4578 15.4245 19.4578H17.3897C17.6479 19.4578 17.8955 19.5602 18.078 19.7424C18.2606 19.9246 18.3631 20.1718 18.3631 20.4295V22.5317C18.3615 22.7548 18.4492 22.9693 18.6066 23.1276C18.7641 23.286 18.9784 23.375 19.2019 23.375H20.5426C21.1688 23.3766 21.7699 23.1295 22.2133 22.6881C22.6566 22.2467 22.9058 21.6473 22.9058 21.0223V15.0335C22.9058 14.5286 22.6816 14.0496 22.2936 13.7257L17.7326 10.0897C16.9392 9.45214 15.8024 9.47272 15.0327 10.1385L10.5757 13.7257C10.1694 14.0401 9.92655 14.5204 9.91455 15.0335V21.0161C9.91455 22.3189 10.9726 23.375 12.2777 23.375H13.5879C14.0521 23.375 14.4293 23.0011 14.4327 22.5378L14.4511 22.5317Z" fill="#232532"/>
</svg>
