<svg width="33" height="33" viewBox="0 0 33 33" fill="none" xmlns="http://www.w3.org/2000/svg">
<rect width="33" height="33" rx="5" fill="#DDE4EE"/>
<path d="M8.98477 11.827C9.08007 11.3968 9.31435 11.0126 9.64925 10.7374C9.98414 10.4623 10.3998 10.3125 10.8281 10.3125H22.1719C22.6002 10.3125 23.0159 10.4623 23.3508 10.7374C23.6856 11.0126 23.9199 11.3968 24.0152 11.827L16.5 16.5595L8.98477 11.827ZM8.9375 12.9393V19.8583L14.4231 16.3929L8.9375 12.9393ZM15.3288 16.9646L9.11805 20.8868C9.2715 21.2201 9.51369 21.5017 9.81643 21.6988C10.1192 21.8959 10.47 22.0004 10.8281 22H22.1719C22.5299 22.0001 22.8806 21.8954 23.1832 21.6982C23.4858 21.5009 23.7278 21.2192 23.881 20.8858L17.6703 16.9637L16.5 17.7009L15.3288 16.9637V16.9646ZM18.5769 16.3939L24.0625 19.8583V12.9393L18.5769 16.3929V16.3939Z" fill="#232532"/>
</svg>
