<svg width="33" height="33" viewBox="0 0 33 33" fill="none" xmlns="http://www.w3.org/2000/svg">
<rect width="33" height="33" rx="5" fill="#DDE4EE"/>
<path fill-rule="evenodd" clip-rule="evenodd" d="M18.1196 9.63045C17.9663 9.60847 17.8122 9.65381 17.6897 9.75137C17.5637 9.8503 17.4849 9.9932 17.4678 10.1533C17.4315 10.4769 17.665 10.7695 17.9882 10.806C20.2168 11.0547 21.9491 12.7908 22.1997 15.0264C22.2332 15.3259 22.4845 15.5519 22.7844 15.5519C22.807 15.5519 22.8289 15.5506 22.8515 15.5478C23.0083 15.5306 23.148 15.453 23.2465 15.3294C23.3445 15.2057 23.389 15.0518 23.3712 14.8945C23.0589 12.1051 20.9001 9.9403 18.1196 9.63045ZM18.1624 12.0243C17.8352 11.9639 17.5346 12.1727 17.4723 12.4922C17.41 12.8117 17.6195 13.1236 17.9379 13.1861C18.8964 13.373 19.6366 14.115 19.8242 15.0768V15.0775C19.8776 15.3544 20.1213 15.5557 20.402 15.5557C20.4397 15.5557 20.4773 15.5522 20.5157 15.5454C20.8341 15.4815 21.0436 15.1702 20.9813 14.8501C20.7012 13.4135 19.5955 12.304 18.1624 12.0243ZM19.25 18.6248C19.5604 18.4458 19.911 18.2436 20.3532 18.3377C20.7538 18.4222 22.119 19.5304 22.4928 19.9144C22.738 20.1659 22.8742 20.4256 22.8954 20.6853C22.9324 21.7041 21.548 22.8673 21.296 23.0122C20.9612 23.2534 20.5716 23.375 20.1341 23.375C19.687 23.375 19.1886 23.2479 18.6449 22.9944C15.6953 21.7632 11.1894 17.3463 9.99808 14.4196C9.50374 13.33 9.50032 12.4313 9.98986 11.756C10.185 11.4393 11.2976 10.1154 12.2938 10.1573C12.5588 10.1799 12.8162 10.316 13.0689 10.5633C13.4509 10.9377 14.5314 12.307 14.6149 12.7089C14.7073 13.1555 14.5047 13.5106 14.3246 13.8226C14.2862 13.8896 14.2344 13.9692 14.1777 14.0564C13.9626 14.3872 13.6762 14.8276 13.7775 15.1087C14.504 16.8922 16.1821 18.4483 17.9664 19.1793C18.2423 19.2796 18.6825 18.9912 19.0122 18.7751C19.0981 18.7187 19.1766 18.6673 19.2427 18.629L19.25 18.6248Z" fill="#232532"/>
</svg>
