<svg width="24" height="21" viewBox="0 0 24 21" fill="none" xmlns="http://www.w3.org/2000/svg">
<path d="M21.1868 3.32669C22.2641 2.61331 22.9774 1.63961 23.3267 0.401274C22.3428 0.975295 21.287 1.39241 20.1922 1.63961C19.2549 0.552291 18.0683 0 16.6457 0C15.2552 0 14.0806 0.526402 13.1219 1.55044C12.659 2.03672 12.293 2.61985 12.0463 3.2641C11.7996 3.90835 11.6775 4.60014 11.6874 5.2971C11.6874 5.74152 11.7393 6.13848 11.8433 6.47504C7.74224 6.32402 4.34776 4.4888 1.67324 0.956441C1.21993 1.82083 0.993278 2.70105 0.993278 3.61147C0.993278 5.48264 1.72524 6.96548 3.18649 8.05424C2.3532 7.97802 1.61858 7.75077 0.993278 7.37826C0.993278 8.7144 1.35726 9.83049 2.08655 10.8128C2.79499 11.77 3.79336 12.4274 4.90639 12.6696C4.49042 12.7847 4.05177 12.8393 3.60113 12.8393C3.18516 12.8393 2.89051 12.8019 2.71585 12.72C3.0225 13.8087 3.60113 14.6918 4.43709 15.3678C5.26349 16.0447 6.26875 16.4191 7.30626 16.4364C5.53036 17.9394 3.49981 18.683 1.2026 18.683C0.639964 18.683 0.24132 18.6743 0 18.6283C2.26254 20.2133 4.78107 21 7.56758 21C10.4194 21 12.9393 20.2205 15.1325 18.6614C17.3257 17.111 18.9443 15.1981 19.9842 12.9458C21.0126 10.7664 21.5481 8.3553 21.5468 5.9098V5.2367C22.5054 4.47431 23.3352 3.53972 24 2.4738C23.1022 2.89358 22.1559 3.18047 21.1868 3.32669Z" fill="#ACACAC"/>
</svg>
