<svg width="37" height="37" viewBox="0 0 37 37" fill="none" xmlns="http://www.w3.org/2000/svg">
<rect width="37" height="37" rx="5" fill="#DDE4EE"/>
<path d="M16.2916 25.2631V22.9061C16.2916 22.3044 16.7829 21.8167 17.389 21.8167H19.6045C19.8955 21.8167 20.1746 21.9315 20.3804 22.1358C20.5863 22.3401 20.7019 22.6172 20.7019 22.9061V25.2631C20.7 25.5133 20.7988 25.7538 20.9764 25.9313C21.1539 26.1088 21.3955 26.2087 21.6474 26.2087H23.1589C23.8649 26.2105 24.5425 25.9334 25.0424 25.4384C25.5422 24.9435 25.8231 24.2715 25.8231 23.5707V16.856C25.8231 16.2899 25.5703 15.753 25.1329 15.3898L19.991 11.313C19.0965 10.5982 17.815 10.6213 16.9472 11.3678L11.9227 15.3898C11.4646 15.7422 11.1908 16.2808 11.1772 16.856V23.5639C11.1772 25.0245 12.37 26.2087 13.8414 26.2087H15.3184C15.8417 26.2087 16.2671 25.7895 16.2708 25.27L16.2916 25.2631Z" fill="#232532"/>
</svg>
