<svg width="37" height="37" viewBox="0 0 37 37" fill="none" xmlns="http://www.w3.org/2000/svg">
<rect width="37" height="37" rx="5" fill="#DDE4EE"/>
<path d="M10.0735 13.2606C10.1804 12.7782 10.443 12.3475 10.8185 12.039C11.194 11.7305 11.66 11.5625 12.1403 11.5625H24.859C25.3393 11.5625 25.8053 11.7305 26.1808 12.039C26.5563 12.3475 26.819 12.7782 26.9258 13.2606L18.4997 18.5667L10.0735 13.2606ZM10.0205 14.5077V22.2653L16.1711 18.3799L10.0205 14.5077ZM17.1865 19.021L10.2229 23.4185C10.395 23.7923 10.6665 24.108 11.006 24.329C11.3454 24.55 11.7388 24.6671 12.1403 24.6667H24.859C25.2605 24.6668 25.6537 24.5494 25.993 24.3282C26.3322 24.1071 26.6035 23.7912 26.7753 23.4174L19.8118 19.0199L18.4997 19.8465L17.1865 19.0199V19.021ZM20.8283 18.381L26.9788 22.2653V14.5077L20.8283 18.3799V18.381Z" fill="#232532"/>
</svg>
