<svg width="37" height="37" viewBox="0 0 37 37" fill="none" xmlns="http://www.w3.org/2000/svg">
<rect width="37" height="37" rx="5" fill="#DDE4EE"/>
<path fill-rule="evenodd" clip-rule="evenodd" d="M20.3158 10.7981C20.1438 10.7735 19.9711 10.8243 19.8337 10.9337C19.6925 11.0446 19.6042 11.2048 19.585 11.3843C19.5443 11.7471 19.8061 12.0753 20.1684 12.1161C22.6672 12.3949 24.6094 14.3415 24.8904 16.8481C24.928 17.1839 25.2097 17.4374 25.546 17.4374C25.5713 17.4374 25.5959 17.4358 25.6212 17.4327C25.797 17.4135 25.9536 17.3264 26.0641 17.1878C26.1739 17.0491 26.2238 16.8766 26.2039 16.7002C25.8538 13.5727 23.4333 11.1455 20.3158 10.7981ZM20.3638 13.4822C19.9968 13.4144 19.6598 13.6485 19.59 14.0067C19.5201 14.3649 19.755 14.7146 20.112 14.7847C21.1867 14.9943 22.0166 15.8262 22.2269 16.9046V16.9054C22.2868 17.2158 22.5601 17.4415 22.8748 17.4415C22.9171 17.4415 22.9593 17.4377 23.0023 17.43C23.3592 17.3583 23.5942 17.0094 23.5243 16.6504C23.2103 15.0397 21.9705 13.7957 20.3638 13.4822ZM21.5832 20.8826C21.9312 20.682 22.3243 20.4553 22.8201 20.5608C23.2692 20.6555 24.7999 21.898 25.2191 22.3286C25.4939 22.6106 25.6467 22.9017 25.6705 23.1929C25.7119 24.3353 24.1597 25.6394 23.8772 25.8019C23.5018 26.0723 23.065 26.2087 22.5745 26.2087C22.0732 26.2087 21.5143 26.0662 20.9048 25.7819C17.5976 24.4015 12.5456 19.4492 11.2098 16.1677C10.6555 14.946 10.6517 13.9385 11.2006 13.1813C11.4194 12.8262 12.6669 11.3418 13.7838 11.3888C14.0809 11.4142 14.3696 11.5667 14.6528 11.844C15.0812 12.2638 16.2926 13.7991 16.3862 14.2497C16.4899 14.7504 16.2626 15.1486 16.0607 15.4983C16.0177 15.5735 15.9597 15.6627 15.8961 15.7605C15.6548 16.1314 15.3337 16.6252 15.4474 16.9404C16.2619 18.9401 18.1434 20.6848 20.144 21.5044C20.4534 21.6169 20.9468 21.2935 21.3166 21.0511C21.4129 20.988 21.5008 20.9304 21.5749 20.8874L21.5832 20.8826Z" fill="#232532"/>
</svg>
