<svg width="208" height="26" viewBox="0 0 208 26" fill="none" xmlns="http://www.w3.org/2000/svg">
<path d="M38.952 19.112C38.2587 19.112 37.5813 19.0213 36.92 18.84C36.2587 18.6587 35.7307 18.4293 35.336 18.152L36.104 16.632C36.488 16.888 36.9467 17.096 37.48 17.256C38.024 17.4053 38.5573 17.48 39.08 17.48C40.2747 17.48 40.872 17.1653 40.872 16.536C40.872 16.2373 40.7173 16.0293 40.408 15.912C40.1093 15.7947 39.624 15.6827 38.952 15.576C38.248 15.4693 37.672 15.3467 37.224 15.208C36.7867 15.0693 36.4027 14.8293 36.072 14.488C35.752 14.136 35.592 13.6507 35.592 13.032C35.592 12.2213 35.928 11.576 36.6 11.096C37.2827 10.6053 38.2 10.36 39.352 10.36C39.9387 10.36 40.5253 10.4293 41.112 10.568C41.6987 10.696 42.1787 10.872 42.552 11.096L41.784 12.616C41.0587 12.1893 40.2427 11.976 39.336 11.976C38.7493 11.976 38.3013 12.0667 37.992 12.248C37.6933 12.4187 37.544 12.648 37.544 12.936C37.544 13.256 37.704 13.4853 38.024 13.624C38.3547 13.752 38.8613 13.8747 39.544 13.992C40.2267 14.0987 40.7867 14.2213 41.224 14.36C41.6613 14.4987 42.0347 14.7333 42.344 15.064C42.664 15.3947 42.824 15.864 42.824 16.472C42.824 17.272 42.4773 17.912 41.784 18.392C41.0907 18.872 40.1467 19.112 38.952 19.112ZM49.3944 10.36C50.4717 10.36 51.3357 10.6747 51.9864 11.304C52.637 11.9333 52.9624 12.8667 52.9624 14.104V19H50.9624V14.36C50.9624 13.6133 50.7864 13.0533 50.4344 12.68C50.0824 12.296 49.581 12.104 48.9304 12.104C48.1944 12.104 47.613 12.328 47.1864 12.776C46.7597 13.2133 46.5464 13.848 46.5464 14.68V19H44.5464V7.128H46.5464V11.448C46.877 11.096 47.2824 10.8293 47.7624 10.648C48.253 10.456 48.797 10.36 49.3944 10.36ZM59.4176 19.112C58.5536 19.112 57.775 18.9253 57.0816 18.552C56.3883 18.1787 55.8443 17.6613 55.4496 17C55.0656 16.328 54.8736 15.5707 54.8736 14.728C54.8736 13.8853 55.0656 13.1333 55.4496 12.472C55.8443 11.8107 56.3883 11.2933 57.0816 10.92C57.775 10.5467 58.5536 10.36 59.4176 10.36C60.2923 10.36 61.0763 10.5467 61.7696 10.92C62.463 11.2933 63.0016 11.8107 63.3856 12.472C63.7803 13.1333 63.9776 13.8853 63.9776 14.728C63.9776 15.5707 63.7803 16.328 63.3856 17C63.0016 17.6613 62.463 18.1787 61.7696 18.552C61.0763 18.9253 60.2923 19.112 59.4176 19.112ZM59.4176 17.4C60.1536 17.4 60.7616 17.1547 61.2416 16.664C61.7216 16.1733 61.9616 15.528 61.9616 14.728C61.9616 13.928 61.7216 13.2827 61.2416 12.792C60.7616 12.3013 60.1536 12.056 59.4176 12.056C58.6816 12.056 58.0736 12.3013 57.5936 12.792C57.1243 13.2827 56.8896 13.928 56.8896 14.728C56.8896 15.528 57.1243 16.1733 57.5936 16.664C58.0736 17.1547 58.6816 17.4 59.4176 17.4ZM67.7941 11.704C68.3701 10.808 69.3835 10.36 70.8341 10.36V12.264C70.6635 12.232 70.5088 12.216 70.3701 12.216C69.5915 12.216 68.9835 12.4453 68.5461 12.904C68.1088 13.352 67.8901 14.0027 67.8901 14.856V19H65.8901V10.456H67.7941V11.704ZM77.9793 18.536C77.7446 18.728 77.4566 18.872 77.1153 18.968C76.7846 19.064 76.4326 19.112 76.0593 19.112C75.1206 19.112 74.3953 18.8667 73.8832 18.376C73.3713 17.8853 73.1153 17.1707 73.1153 16.232V12.12H71.7073V10.52H73.1153V8.568H75.1153V10.52H77.4033V12.12H75.1153V16.184C75.1153 16.6 75.2166 16.92 75.4193 17.144C75.6219 17.3573 75.9153 17.464 76.2993 17.464C76.7473 17.464 77.1206 17.3467 77.4193 17.112L77.9793 18.536Z" fill="#717171"/>
<rect y="4" width="21" height="21" fill="#FF0000"/>
<path d="M171.312 7.128H173.312V19H171.312V7.128ZM179.777 19.112C178.913 19.112 178.134 18.9253 177.441 18.552C176.748 18.1787 176.204 17.6613 175.809 17C175.425 16.328 175.233 15.5707 175.233 14.728C175.233 13.8853 175.425 13.1333 175.809 12.472C176.204 11.8107 176.748 11.2933 177.441 10.92C178.134 10.5467 178.913 10.36 179.777 10.36C180.652 10.36 181.436 10.5467 182.129 10.92C182.822 11.2933 183.361 11.8107 183.745 12.472C184.14 13.1333 184.337 13.8853 184.337 14.728C184.337 15.5707 184.14 16.328 183.745 17C183.361 17.6613 182.822 18.1787 182.129 18.552C181.436 18.9253 180.652 19.112 179.777 19.112ZM179.777 17.4C180.513 17.4 181.121 17.1547 181.601 16.664C182.081 16.1733 182.321 15.528 182.321 14.728C182.321 13.928 182.081 13.2827 181.601 12.792C181.121 12.3013 180.513 12.056 179.777 12.056C179.041 12.056 178.433 12.3013 177.953 12.792C177.484 13.2827 177.249 13.928 177.249 14.728C177.249 15.528 177.484 16.1733 177.953 16.664C178.433 17.1547 179.041 17.4 179.777 17.4ZM191.098 10.36C192.175 10.36 193.039 10.6747 193.69 11.304C194.34 11.9333 194.666 12.8667 194.666 14.104V19H192.666V14.36C192.666 13.6133 192.49 13.0533 192.138 12.68C191.786 12.296 191.284 12.104 190.634 12.104C189.898 12.104 189.316 12.328 188.89 12.776C188.463 13.2133 188.25 13.848 188.25 14.68V19H186.25V10.456H188.154V11.56C188.484 11.1653 188.9 10.8667 189.402 10.664C189.903 10.4613 190.468 10.36 191.098 10.36ZM205.761 10.456V17.704C205.761 20.712 204.225 22.216 201.153 22.216C200.331 22.216 199.553 22.1093 198.817 21.896C198.081 21.6933 197.473 21.3947 196.993 21L197.889 19.496C198.262 19.8053 198.731 20.0507 199.297 20.232C199.873 20.424 200.454 20.52 201.041 20.52C201.979 20.52 202.667 20.3067 203.105 19.88C203.542 19.4533 203.761 18.8027 203.761 17.928V17.48C203.419 17.8533 203.003 18.136 202.513 18.328C202.022 18.52 201.483 18.616 200.897 18.616C200.086 18.616 199.35 18.4453 198.689 18.104C198.038 17.752 197.521 17.2613 197.137 16.632C196.763 16.0027 196.577 15.2827 196.577 14.472C196.577 13.6613 196.763 12.9467 197.137 12.328C197.521 11.6987 198.038 11.2133 198.689 10.872C199.35 10.5307 200.086 10.36 200.897 10.36C201.515 10.36 202.075 10.4613 202.577 10.664C203.089 10.8667 203.515 11.176 203.857 11.592V10.456H205.761ZM201.201 16.92C201.958 16.92 202.577 16.696 203.057 16.248C203.547 15.7893 203.793 15.1973 203.793 14.472C203.793 13.7573 203.547 13.176 203.057 12.728C202.577 12.28 201.958 12.056 201.201 12.056C200.433 12.056 199.803 12.28 199.313 12.728C198.833 13.176 198.593 13.7573 198.593 14.472C198.593 15.1973 198.833 15.7893 199.313 16.248C199.803 16.696 200.433 16.92 201.201 16.92Z" fill="#717171"/>
<rect x="135" y="4" width="21" height="21" fill="#4870F4"/>
</svg>
