<svg width="147" height="56" viewBox="0 0 147 56" fill="none" xmlns="http://www.w3.org/2000/svg">
<path d="M30.3856 19.3034C29.5379 18.5002 29.7125 17.1561 30.7405 16.5716L32.2076 15.7375C32.655 15.4832 33.0293 15.1285 33.2977 14.7046L34.1779 13.3146C34.7947 12.3406 36.2135 12.1751 37.0612 12.9783C37.9089 13.7815 37.7343 15.1257 36.7061 15.7101L35.2392 16.5442C34.7918 16.7985 34.4174 17.1533 34.149 17.5771L33.2689 18.9671C32.6519 19.9411 31.2333 20.1065 30.3856 19.3034Z" fill="#4C91C7"/>
<path d="M13.6971 19.3034C12.8494 18.5002 13.0241 17.1561 14.052 16.5716L15.519 15.7375C15.9664 15.4832 16.3407 15.1285 16.6093 14.7046L17.4895 13.3146C18.1061 12.3406 19.5248 12.1751 20.3726 12.9783C21.2203 13.7815 21.0457 15.1257 20.0177 15.7101L18.5507 16.5442C18.1032 16.7985 17.729 17.1533 17.4604 17.5771L16.5803 18.9671C15.9635 19.9411 14.5448 20.1065 13.6971 19.3034Z" fill="#4C91C7"/>
<path d="M5.35239 27.2097C4.50467 26.4065 4.67931 25.0622 5.70731 24.4779L7.17432 23.6438C7.62169 23.3894 7.9961 23.0348 8.26453 22.6109L9.14473 21.2208C9.76153 20.2468 11.1802 20.0814 12.0279 20.8845C12.8756 21.6878 12.7009 23.0318 11.6729 23.6163L10.206 24.4504C9.75859 24.7048 9.38418 25.0595 9.11573 25.4834L8.23555 26.8734C7.61874 27.8474 6.20008 28.0128 5.35239 27.2097Z" fill="#4C91C7"/>
<path d="M22.0409 43.0222C21.1931 42.219 21.3678 40.8747 22.3958 40.2904L23.8628 39.4563C24.3102 39.2019 24.6847 38.8471 24.9531 38.4234L25.8333 37.0333C26.4501 36.0593 27.8686 35.8939 28.7164 36.697C29.5641 37.5003 29.3895 38.8445 28.3615 39.4288L26.8944 40.2629C26.4471 40.5173 26.0726 40.8719 25.8042 41.2959L24.924 42.6859C24.3072 43.6599 22.8885 43.8253 22.0409 43.0222Z" fill="#06406E"/>
<path d="M21.9905 44.6505C22.8431 43.8427 24.2781 44.0502 24.8376 45.0623L25.5756 46.3971C25.8546 46.902 26.2898 47.3143 26.8227 47.5787L28.2314 48.278C29.2996 48.8082 29.5185 50.1677 28.6659 50.9756C27.8437 51.7547 26.4676 51.5941 25.8695 50.6495L24.9528 49.2019C24.6844 48.778 24.3099 48.4232 23.8625 48.1688L22.3347 47.3003C21.3377 46.7334 21.1681 45.4296 21.9905 44.6505Z" fill="#06406E"/>
<path d="M21.9905 28.8382C22.8431 28.0301 24.2781 28.2376 24.8376 29.2499L25.5756 30.5847C25.8546 31.0896 26.2898 31.5018 26.8227 31.7663L28.2314 32.4656C29.2996 32.9956 29.5185 34.3553 28.6659 35.1632C27.8437 35.9422 26.4676 35.7818 25.8695 34.8371L24.9528 33.3893C24.6844 32.9654 24.3099 32.6108 23.8625 32.3564L22.3347 31.4877C21.3377 30.9208 21.1681 29.6172 21.9905 28.8382Z" fill="#06406E"/>
<path d="M21.9905 13.0256C22.8431 12.2177 24.2781 12.4251 24.8376 13.4372L25.5756 14.7721C25.8546 15.277 26.2898 15.6892 26.8227 15.9538L28.2314 16.6531C29.2996 17.1831 29.5185 18.5428 28.6659 19.3506C27.8437 20.1296 26.4676 19.9692 25.8695 19.0244L24.9528 17.5768C24.6844 17.1529 24.3099 16.7981 23.8625 16.5437L22.3347 15.6752C21.3377 15.1084 21.1681 13.8046 21.9905 13.0256Z" fill="#4C91C7"/>
<path d="M5.30197 28.8382C6.15461 28.0301 7.58959 28.2376 8.14909 29.2499L8.88704 30.5847C9.16618 31.0896 9.60127 31.5018 10.1342 31.7663L11.543 32.4656C12.6111 32.9956 12.8301 34.3553 11.9775 35.1632C11.1553 35.9422 9.77928 35.7818 9.18101 34.8371L8.2643 33.3893C7.99589 32.9654 7.62146 32.6108 7.17409 32.3564L5.64623 31.4877C4.64914 30.9208 4.47975 29.6172 5.30197 28.8382Z" fill="#4C91C7"/>
<path d="M33.7232 3.49003L30.3854 0.327492C29.9247 -0.109164 29.1775 -0.109164 28.7166 0.327492L25.3788 3.49003C24.918 3.92669 24.918 4.63464 25.3788 5.07131L28.7166 8.23385C29.1775 8.6705 29.9247 8.6705 30.3854 8.23385L33.7232 5.07131C34.1841 4.63464 34.1841 3.92669 33.7232 3.49003Z" fill="#06406E"/>
<path d="M25.3787 11.3963L22.0409 8.23374C21.58 7.79709 20.8328 7.79709 20.3719 8.23374L17.0341 11.3963C16.5733 11.8329 16.5733 12.5409 17.0341 12.9775L20.3719 16.1401C20.8328 16.5767 21.58 16.5767 22.0409 16.1401L25.3787 12.9775C25.8395 12.5409 25.8395 11.8329 25.3787 11.3963Z" fill="#4C91C7"/>
<path d="M17.0347 19.3025L13.697 16.14C13.2362 15.7033 12.489 15.7033 12.0281 16.14L8.69037 19.3025C8.22951 19.7391 8.22951 20.4472 8.69037 20.8837L12.0281 24.0464C12.489 24.4829 13.2362 24.4829 13.697 24.0464L17.0347 20.8837C17.4956 20.4472 17.4956 19.7391 17.0347 19.3025Z" fill="#4C91C7"/>
<path d="M8.69003 27.2087L5.35228 24.0462C4.89143 23.6096 4.14424 23.6096 3.6834 24.0462L0.345636 27.2087C-0.115213 27.6454 -0.115211 28.3533 0.345636 28.79L3.6834 31.9525C4.14424 32.3892 4.89143 32.3892 5.35228 31.9525L8.69003 28.79C9.15089 28.3533 9.15089 27.6454 8.69003 27.2087Z" fill="#4C91C7"/>
<path d="M33.7232 35.115L30.3854 31.9525C29.9247 31.5158 29.1775 31.5158 28.7166 31.9525L25.3788 35.115C24.918 35.5518 24.918 36.2597 25.3788 36.6964L28.7166 39.8589C29.1775 40.2956 29.9247 40.2956 30.3854 39.8589L33.7232 36.6964C34.1841 36.2597 34.1841 35.5518 33.7232 35.115Z" fill="#06406E"/>
<path d="M25.3787 43.0213L22.0409 39.8588C21.58 39.4221 20.8328 39.4221 20.3719 39.8588L17.0341 43.0213C16.5733 43.458 16.5733 44.1659 17.0341 44.6026L20.3719 47.7651C20.8328 48.2018 21.58 48.2018 22.0409 47.7651L25.3787 44.6026C25.8395 44.1659 25.8395 43.458 25.3787 43.0213Z" fill="#06406E"/>
<path d="M42.0681 11.3963L38.7303 8.23374C38.2695 7.79709 37.5222 7.79709 37.0614 8.23374L33.7236 11.3963C33.2627 11.8329 33.2627 12.5409 33.7236 12.9775L37.0614 16.1401C37.5222 16.5767 38.2695 16.5767 38.7303 16.1401L42.0681 12.9775C42.529 12.5409 42.529 11.8329 42.0681 11.3963Z" fill="#4C91C7"/>
<path d="M33.7232 19.3025L30.3854 16.14C29.9247 15.7033 29.1775 15.7033 28.7166 16.14L25.3788 19.3025C24.918 19.7391 24.918 20.4472 25.3788 20.8837L28.7166 24.0464C29.1775 24.4829 29.9247 24.4829 30.3854 24.0464L33.7232 20.8837C34.1841 20.4472 34.1841 19.7391 33.7232 19.3025Z" fill="#4C91C7"/>
<path d="M25.3787 27.2087L22.0409 24.0462C21.58 23.6096 20.8328 23.6096 20.3719 24.0462L17.0341 27.2087C16.5733 27.6454 16.5733 28.3533 17.0341 28.79L20.3719 31.9525C20.8328 32.3892 21.58 32.3892 22.0409 31.9525L25.3787 28.79C25.8395 28.3533 25.8395 27.6454 25.3787 27.2087Z" fill="#06406E"/>
<path d="M17.0347 35.115L13.697 31.9525C13.2361 31.5158 12.489 31.5158 12.0281 31.9525L8.69036 35.115C8.22952 35.5518 8.22952 36.2597 8.69036 36.6964L12.0281 39.8589C12.489 40.2956 13.2361 40.2956 13.697 39.8589L17.0347 36.6964C17.4956 36.2597 17.4956 35.5518 17.0347 35.115Z" fill="#4C91C7"/>
<path d="M42.0681 43.0213L38.7303 39.8588C38.2695 39.4221 37.5222 39.4221 37.0614 39.8588L33.7236 43.0213C33.2627 43.458 33.2627 44.1659 33.7236 44.6026L37.0614 47.7651C37.5222 48.2018 38.2695 48.2018 38.7303 47.7651L42.0681 44.6026C42.529 44.1659 42.529 43.458 42.0681 43.0213Z" fill="#4C91C7"/>
<path d="M33.7232 50.9295L30.3854 47.767C29.9247 47.3303 29.1775 47.3303 28.7166 47.767L25.3788 50.9295C24.918 51.3662 24.918 52.0741 25.3788 52.5108L28.7166 55.6733C29.1775 56.11 29.9247 56.11 30.3854 55.6733L33.7232 52.5108C34.1841 52.0741 34.1841 51.3662 33.7232 50.9295Z" fill="#06406E"/>
<path d="M51.5 35.9831C49.5508 34.3561 48.5762 31.7846 48.5762 28.2685C48.5762 24.7524 49.5508 22.1855 51.5 20.5676C53.4492 18.9496 56.3016 18.1406 60.0573 18.1406C63.8225 18.1406 66.6751 18.9496 68.6147 20.5676C70.5638 22.1855 71.5384 24.7524 71.5384 28.2685C71.5384 31.7846 70.5638 34.3561 68.6147 35.9831C66.6751 37.601 63.8225 38.4101 60.0573 38.4101C56.3016 38.4101 53.4492 37.601 51.5 35.9831ZM55.3936 23.4282C54.4332 24.513 53.9531 26.1309 53.9531 28.2821C53.9531 30.4243 54.4332 32.0377 55.3936 33.1223C56.3635 34.198 57.918 34.7357 60.0573 34.7357C62.2061 34.7357 63.7608 34.198 64.7212 33.1223C65.6813 32.0377 66.1615 30.4243 66.1615 28.2821C66.1615 26.1309 65.6813 24.513 64.7212 23.4282C63.7608 22.3436 62.2061 21.8014 60.0573 21.8014C57.918 21.8014 56.3635 22.3436 55.3936 23.4282ZM74.1627 37.1627V19.388C74.1627 19.1439 74.2435 18.9451 74.4051 18.7915C74.5763 18.6287 74.7855 18.5474 75.0326 18.5474H78.2274C78.4842 18.5474 78.6933 18.6287 78.8549 18.7915C79.0166 18.9451 79.0974 19.1439 79.0974 19.388V29.0142C80.7519 29.0142 81.8833 28.4041 82.4918 27.1839L83.8611 24.418C84.0512 24.0294 84.3316 23.7175 84.7024 23.4825C85.0732 23.2476 85.4726 23.13 85.9005 23.13H88.596C89.0715 23.13 89.3092 23.3062 89.3092 23.6589C89.3092 23.8577 89.2331 24.1107 89.081 24.418L87.2412 28.1059C86.9274 28.7205 86.4995 29.2493 85.9576 29.6922C85.4156 30.135 84.8308 30.4198 84.2033 30.5463C85.3728 30.8807 86.3854 31.6942 87.2412 32.9867L89.6657 36.7152C89.8273 36.9774 89.913 37.2033 89.9224 37.3932C89.9224 37.4745 89.9081 37.5513 89.8798 37.6236C89.7847 37.8677 89.5516 37.9897 89.1808 37.9897H86.4853C85.5725 37.9897 84.8451 37.5649 84.3031 36.7152L82.4918 33.9087C81.7122 32.7066 80.5807 32.1054 79.0974 32.1054V37.1627C79.0974 37.4068 79.0119 37.6056 78.8407 37.7592C78.679 37.9129 78.4746 37.9897 78.2274 37.9897H75.0326C74.7759 37.9897 74.5667 37.9129 74.4051 37.7592C74.2435 37.6056 74.1627 37.4068 74.1627 37.1627ZM91.9904 20.2964V19.8353C91.9904 19.3564 92.1331 18.9767 92.4183 18.6966C92.7132 18.4163 93.1173 18.2762 93.6307 18.2762H95.3991C95.9031 18.2762 96.3025 18.4163 96.5972 18.6966C96.8919 18.9676 97.0394 19.3473 97.0394 19.8353V20.2964C97.0394 20.7754 96.8919 21.155 96.5972 21.4353C96.3119 21.7155 95.9126 21.8555 95.3991 21.8555H93.6307C93.1267 21.8555 92.7273 21.7155 92.4326 21.4353C92.1379 21.155 91.9904 20.7754 91.9904 20.2964ZM92.0476 37.1627V24.2959C92.0476 24.0519 92.1284 23.8531 92.29 23.6994C92.4612 23.5458 92.6703 23.469 92.9175 23.469H96.1123C96.369 23.469 96.5782 23.5503 96.7398 23.713C96.9015 23.8666 96.9823 24.061 96.9823 24.2959V37.1627C96.9823 37.4068 96.8967 37.6056 96.7255 37.7592C96.5639 37.9129 96.3595 37.9897 96.1123 37.9897H92.9175C92.6608 37.9897 92.4516 37.9129 92.29 37.7592C92.1284 37.6056 92.0476 37.4068 92.0476 37.1627ZM100.833 36.688V19.8083C100.833 19.4559 100.966 19.1575 101.233 18.9135C101.499 18.6694 101.817 18.5474 102.188 18.5474H118.632C119.003 18.5474 119.317 18.6739 119.574 18.927C119.84 19.18 119.973 19.4828 119.973 19.8353V21.1098C119.973 21.4623 119.84 21.7651 119.574 22.0183C119.317 22.2623 119.003 22.3843 118.632 22.3843H106.21V27.1567H116.322C116.693 27.1567 117.007 27.2834 117.263 27.5364C117.529 27.7895 117.663 28.0878 117.663 28.4312V29.7193C117.663 30.0718 117.529 30.3746 117.263 30.6276C117.007 30.8716 116.693 30.9937 116.322 30.9937H106.21V36.688C106.21 37.0587 106.077 37.3705 105.811 37.6236C105.554 37.8677 105.24 37.9897 104.869 37.9897H102.188C101.817 37.9897 101.499 37.8677 101.233 37.6236C100.966 37.3705 100.833 37.0587 100.833 36.688ZM122.027 20.2964V19.8353C122.027 19.3564 122.169 18.9767 122.455 18.6966C122.749 18.4163 123.153 18.2762 123.667 18.2762H125.435C125.939 18.2762 126.339 18.4163 126.634 18.6966C126.928 18.9676 127.076 19.3473 127.076 19.8353V20.2964C127.076 20.7754 126.928 21.155 126.634 21.4353C126.348 21.7155 125.949 21.8555 125.435 21.8555H123.667C123.163 21.8555 122.764 21.7155 122.469 21.4353C122.174 21.155 122.027 20.7754 122.027 20.2964ZM122.084 37.1627V24.2959C122.084 24.0519 122.165 23.8531 122.326 23.6994C122.497 23.5458 122.707 23.469 122.954 23.469H126.148C126.405 23.469 126.615 23.5503 126.776 23.713C126.938 23.8666 127.019 24.061 127.019 24.2959V37.1627C127.019 37.4068 126.933 37.6056 126.762 37.7592C126.6 37.9129 126.396 37.9897 126.148 37.9897H122.954C122.697 37.9897 122.488 37.9129 122.326 37.7592C122.165 37.6056 122.084 37.4068 122.084 37.1627ZM130.584 37.1627V23.9706C130.584 23.7266 130.665 23.5277 130.827 23.3741C130.998 23.2113 131.207 23.13 131.454 23.13H134.649C134.906 23.13 135.115 23.2113 135.276 23.3741C135.438 23.5277 135.519 23.7266 135.519 23.9706V24.8248C137.154 23.5142 138.818 22.8589 140.511 22.8589C142.517 22.8589 144.1 23.3966 145.26 24.4723C146.42 25.5388 147 27.1749 147 29.3802V37.1627C147 37.4068 146.914 37.6056 146.743 37.7592C146.582 37.9129 146.372 37.9897 146.116 37.9897H142.935C142.679 37.9897 142.469 37.9129 142.308 37.7592C142.146 37.5965 142.065 37.3977 142.065 37.1627V29.3802C142.065 27.211 141.157 26.1309 139.341 26.14C138.153 26.14 136.878 26.7862 135.519 28.0787V37.1627C135.519 37.4068 135.433 37.6056 135.262 37.7592C135.1 37.9129 134.896 37.9897 134.649 37.9897H131.454C131.197 37.9897 130.988 37.9129 130.827 37.7592C130.665 37.6056 130.584 37.4068 130.584 37.1627Z" fill="#232532"/>
</svg>
