<svg width="28" height="28" viewBox="0 0 28 28" fill="none" xmlns="http://www.w3.org/2000/svg">
<path d="M23.856 23.8602H19.7092V17.3642C19.7092 15.8144 19.677 13.8208 17.5476 13.8208C15.386 13.8208 15.0556 15.5064 15.0556 17.2494V23.8602H10.9102V10.5H14.8918V12.32H14.9464C15.5022 11.27 16.856 10.164 18.8776 10.164C23.079 10.164 23.856 12.9276 23.856 16.527V23.8602ZM6.2258 8.6716C4.8902 8.6716 3.8178 7.5922 3.8178 6.2636C3.8178 4.935 4.8916 3.8556 6.2258 3.8556C6.86444 3.8556 7.47693 4.1093 7.92851 4.56089C8.3801 5.01247 8.6338 5.62496 8.6338 6.2636C8.6338 6.90224 8.3801 7.51473 7.92851 7.96631C7.47693 8.4179 6.86444 8.6716 6.2258 8.6716ZM8.3034 23.8616H4.1454V10.5H8.3034V23.8602V23.8616ZM25.9294 0H2.0664C0.924 0 0 0.903 0 2.016V25.984C0 27.097 0.924 28 2.0664 28H25.9252C27.0662 28 28 27.0984 28 25.984V2.016C28 0.9044 27.0662 0 25.9252 0H25.9294Z" fill="#4870F4"/>
</svg>
